<?xml version="1.0" standalone="no"?>
<!DOCTYPE svg PUBLIC "-//W3C//DTD SVG 20010904//EN"
 "http://www.w3.org/TR/2001/REC-SVG-20010904/DTD/svg10.dtd">
<svg version="1.0" xmlns="http://www.w3.org/2000/svg"
 width="700.000000pt" height="700.000000pt" viewBox="0 0 700.000000 700.000000"
 preserveAspectRatio="xMidYMid meet">
<metadata>
Created by potrace 1.11, written by Peter Selinger 2001-2013
</metadata>
<g transform="translate(0.000000,700.000000) scale(0.100000,-0.100000)"
fill="#000000" stroke="none">
<path d="M3298 6995 c-2 -1 -41 -5 -88 -9 -100 -7 -225 -22 -295 -36 -27 -5
-61 -12 -75 -14 -603 -110 -1212 -412 -1672 -828 -118 -107 -205 -195 -332
-338 -202 -226 -443 -622 -573 -940 -76 -185 -176 -515 -197 -650 -3 -19 -12
-75 -20 -125 -34 -206 -41 -304 -41 -570 1 -258 12 -389 52 -605 8 -47 17 -96
19 -109 24 -129 114 -421 184 -596 37 -94 180 -383 210 -425 11 -15 20 -31 20
-34 0 -3 30 -51 67 -108 443 -686 1110 -1198 1883 -1443 64 -20 139 -42 175
-51 44 -11 153 -36 165 -39 93 -18 195 -36 240 -40 30 -3 61 -8 67 -10 56 -19
536 -27 713 -12 375 32 752 128 1105 282 116 50 303 145 347 176 14 11 29 19
33 19 13 0 268 174 363 248 164 127 390 342 497 472 21 25 41 47 44 50 4 3 45
55 91 115 332 437 547 915 654 1456 14 70 28 155 32 190 3 35 8 67 10 70 9 17
19 214 19 399 0 244 -13 422 -40 570 -64 346 -127 560 -246 837 -218 502 -585
986 -1002 1318 -21 17 -48 38 -60 49 -29 25 -168 125 -217 156 -388 249 -787
416 -1208 505 -98 20 -246 43 -392 60 -56 7 -526 16 -532 10z"/>
</g>
</svg>
