<svg xmlns="http://www.w3.org/2000/svg" viewBox="0 0 1468.46 417.98"><defs><style>.cls-1{fill:#37abc8;}.cls-2{fill:#3e3a39;}.cls-3{fill:#dcf4f3;stroke:#37ab93;stroke-width:9.64px;}.cls-3,.cls-5,.cls-6,.cls-7,.cls-8{stroke-linecap:round;}.cls-3,.cls-5,.cls-7,.cls-8{stroke-linejoin:round;}.cls-4{fill:#ffe680;}.cls-5,.cls-6,.cls-7,.cls-8{fill:none;stroke:#37abc8;}.cls-5{stroke-width:2.28px;}.cls-6,.cls-8{stroke-width:6.17px;}.cls-7{stroke-width:6px;}</style></defs><title>アセット 3</title><g id="レイヤー_2" data-name="レイヤー 2"><g id="レイヤー_1-2" data-name="レイヤー 1"><path class="cls-1" d="M602.27,106.27H516.21a6.44,6.44,0,0,1-4.23-2,5.18,5.18,0,0,1-1.64-4.08V66.83A5.75,5.75,0,0,1,512,62.59a6.07,6.07,0,0,1,4.23-1.47h84.92v37A25.37,25.37,0,0,0,602.27,106.27Zm7.34,10.11c3.42,2.28,8.15,3.42,13.85,3.42h30v31.78c.17,19.07-4.07,32.77-13,41.08-8.81,8.47-22.33,12.55-40.59,12.55H532a6.28,6.28,0,0,1-4.56-1.63,5.6,5.6,0,0,1-2-4.4V165.93a5.51,5.51,0,0,1,2-4.24,6.28,6.28,0,0,1,4.56-1.63H587.6c8.15.16,13.7-1.3,17.12-4.24,3.26-3.1,4.89-8.8,4.89-17.6ZM606.19,72c0-5.21,1.46-9.29,4.4-11.9,2.77-2.77,7-4.07,12.22-4.07h21c5.7,0,9.78,1.3,12.55,4.07,2.77,2.61,3.91,6.69,4.07,11.9V98.77c-.16,5.22-1.46,9.13-4.23,11.74-2.78,2.77-6.85,4.24-12.39,4.24h-21c-5.7,0-9.94-1.47-12.55-4.24-2.77-2.61-4.07-6.52-4.07-11.74ZM639,83.13a4.31,4.31,0,0,0-.82-2.12,2.56,2.56,0,0,0-2.44-1.14h-4.57A2.56,2.56,0,0,0,628.68,81a4.31,4.31,0,0,0-.82,2.12v4.72a2.7,2.7,0,0,0,.82,2A2.58,2.58,0,0,0,631.12,91h4.57a2.58,2.58,0,0,0,2.44-1.14,2.7,2.7,0,0,0,.82-2Z"/><path class="cls-1" d="M767.39,161.85c2.29-1.95,3.59-4.89,3.75-9v-1a5.86,5.86,0,0,0-1.79-4.08,6.43,6.43,0,0,0-4.73-1.63H679.7a7.36,7.36,0,0,1-4.72-1.95,5.78,5.78,0,0,1-1.64-4.56V113.28A5.29,5.29,0,0,1,675,109a6.43,6.43,0,0,1,4.72-1.63H780.59c11.9,0,21,2.94,27.06,9.13s9,15,9,26.89v7.83c.16,17.44-3.91,30.8-12.39,39.93-8.31,9-22,13.69-41.07,13.69H692.42a5.53,5.53,0,0,1-4.24-1.63,7.48,7.48,0,0,1-1.63-4.24V170.49a7.55,7.55,0,0,1,1.63-4.4,5.53,5.53,0,0,1,4.24-1.63h65.84C762,164.62,765,163.81,767.39,161.85Zm47.76-100.4c1.14,1,1.47,2.28,1.47,4.07V88a5.27,5.27,0,0,1-1.47,4.07,6,6,0,0,1-4.4,1.79h-131a5.66,5.66,0,0,1-4.24-1.79A6.23,6.23,0,0,1,673.67,88V65.52a5.6,5.6,0,0,1,1.79-4.07,6.32,6.32,0,0,1,4.24-1.79h131A6.73,6.73,0,0,1,815.15,61.45Z"/><path class="cls-1" d="M911.81,61.12a6.52,6.52,0,0,1,4.4,1.47,5.78,5.78,0,0,1,1.63,4.24v33.41a5.2,5.2,0,0,1-1.63,4.08,6.87,6.87,0,0,1-4.4,2h-69.6a6.44,6.44,0,0,1-4.23-2,5.18,5.18,0,0,1-1.64-4.08V66.83A5.75,5.75,0,0,1,838,62.59a6.07,6.07,0,0,1,4.23-1.47Zm23.8,46.13a6.12,6.12,0,0,1,1.95-4.24,5.09,5.09,0,0,1,3.92-1.63h31.45a6.43,6.43,0,0,1,4.73,1.63,5.42,5.42,0,0,1,1.79,4.24v44.33c.17,19.07-4.07,32.77-13,41.08-8.81,8.47-22.34,12.55-40.59,12.55H843.19a6.45,6.45,0,0,1-4.73-1.63,5.46,5.46,0,0,1-1.79-4.4V165.93a5.35,5.35,0,0,1,1.79-4.24,6.45,6.45,0,0,1,4.73-1.63H913.6c8.15.16,13.7-1.3,17.12-4.24,3.26-3.1,4.89-8.8,4.89-17.6Z"/><path class="cls-1" d="M1001.14,142.29c-1.14-1.14-1.47-2.77-1.63-4.72V108.88a7.39,7.39,0,0,1,1.63-4.56,6.31,6.31,0,0,1,4.24-1.8h10.26a6.41,6.41,0,0,0,4.57-1.79,6.51,6.51,0,0,0,1.63-4.24V65.85a6.12,6.12,0,0,1,1.95-4.24,5.33,5.33,0,0,1,3.92-1.63h108.22a6.43,6.43,0,0,1,4.73,1.63,5.42,5.42,0,0,1,1.79,4.24v85.73c.17,19.07-4.07,32.77-13,41.08-8.81,8.47-22.34,12.55-40.59,12.55h-82.64a6.45,6.45,0,0,1-4.73-1.63,5.46,5.46,0,0,1-1.79-4.4V165.93a5.35,5.35,0,0,1,1.79-4.24,6.45,6.45,0,0,1,4.73-1.63h67.32c8,.16,14.34-2,18.58-5.87s6.52-10.27,6.52-19.07V121.43c0-8-2.28-14.18-6.52-18.42-4.24-4.4-10.6-6.52-18.58-6.36-8.48-.16-14.67,2.12-19.07,6.52-4.24,4.24-6.36,10.44-6.36,18.26v16.14a7.17,7.17,0,0,1-1.63,4.72,5.91,5.91,0,0,1-4.73,1.8h-36.34A5.11,5.11,0,0,1,1001.14,142.29Z"/><path class="cls-1" d="M1288.67,138.22a8.4,8.4,0,0,1,4.07,3.75c.82,1.63.49,3.75-1,6.52l-15.16,26.4c-1.3,2.77-2.93,4.57-5,5.38-2,.82-4.24.49-6.84-1l-44.83-27v46.94a6.66,6.66,0,0,1-1.79,4.24,5.92,5.92,0,0,1-4.08,1.79h-33.9a6.14,6.14,0,0,1-5.87-6V66.5a6.46,6.46,0,0,1,5.87-6.36H1214a6.12,6.12,0,0,1,4.08,2,6.73,6.73,0,0,1,1.79,4.4v31Z"/><path class="cls-1" d="M1400.81,61.12a6.52,6.52,0,0,1,4.4,1.47,5.78,5.78,0,0,1,1.63,4.24v33.41a5.2,5.2,0,0,1-1.63,4.08,6.87,6.87,0,0,1-4.4,2h-69.6a6.48,6.48,0,0,1-4.24-2,5.2,5.2,0,0,1-1.63-4.08V66.83a5.78,5.78,0,0,1,1.63-4.24,6.11,6.11,0,0,1,4.24-1.47Zm23.8,46.13a6.12,6.12,0,0,1,2-4.24,5.09,5.09,0,0,1,3.92-1.63h31.45a6.43,6.43,0,0,1,4.73,1.63,5.42,5.42,0,0,1,1.79,4.24v44.33c.17,19.07-4.07,32.77-13,41.08-8.81,8.47-22.34,12.55-40.59,12.55h-82.64a6.45,6.45,0,0,1-4.73-1.63,5.46,5.46,0,0,1-1.79-4.4V165.93a5.35,5.35,0,0,1,1.79-4.24,6.45,6.45,0,0,1,4.73-1.63h70.41c8.15.16,13.7-1.3,17.12-4.24,3.26-3.1,4.89-8.8,4.89-17.6Z"/><path class="cls-2" d="M510.06,289.56a4,4,0,0,1-1.3-3.12V260.05a5.79,5.79,0,0,1,1.3-3.77,4.51,4.51,0,0,1,3.38-1.43h9.23V243.93a5.49,5.49,0,0,1,1.56-3.51,4.22,4.22,0,0,1,3.12-1.17H550a5.33,5.33,0,0,1,3.64,1.17,4.8,4.8,0,0,1,1.43,3.51v10.92h21.45V243.93a5.49,5.49,0,0,1,1.56-3.51,4.43,4.43,0,0,1,3.12-1.17h22.62a5.33,5.33,0,0,1,3.64,1.17,4.8,4.8,0,0,1,1.43,3.51v10.92h8.45a5.2,5.2,0,0,1,3.77,1.43,5.92,5.92,0,0,1,1.43,3.77v26.39a4.15,4.15,0,0,1-1.43,3.12,5.89,5.89,0,0,1-3.77,1.56h-8.45V311c.26,15.21-3.12,26.13-10.27,32.76s-17.94,10-32.37,10H523.06a4.63,4.63,0,0,1-3.64-1.3,4.45,4.45,0,0,1-1.56-3.51V322.45a4.38,4.38,0,0,1,1.56-3.38,4.63,4.63,0,0,1,3.64-1.3h35.88c6.5.13,10.92-1,13.65-3.38s3.9-7,3.9-14v-9.23H555v13.26a4.43,4.43,0,0,1-1.43,3.25,4.89,4.89,0,0,1-3.64,1.43H527.35a4,4,0,0,1-3.12-1.43,5.13,5.13,0,0,1-1.56-3.25V291.12h-9.23A5.16,5.16,0,0,1,510.06,289.56Z"/><path class="cls-2" d="M790.73,339.35a3.66,3.66,0,0,1-1.17-3V314.78c0-1.43.13-2.6.78-3.25a4.27,4.27,0,0,1,3.12-.91l104.26,13.65a7.28,7.28,0,0,1,4.16,1.82,4.59,4.59,0,0,1,1.43,3.51v19.24c-.39,2.21-.91,3.77-1.82,4.42a5.71,5.71,0,0,1-3.77.52L794.5,341.17A6.85,6.85,0,0,1,790.73,339.35Zm2.47-78.26A4.22,4.22,0,0,1,792,258v-18.2a3.93,3.93,0,0,1,.91-3,4.29,4.29,0,0,1,2.47-.91L895.64,247.7a6.4,6.4,0,0,1,3.9,1.69,4.71,4.71,0,0,1,1.3,3.51v17.29c-.13,2.21-.65,3.38-1.56,4a5.13,5.13,0,0,1-3.64.65l-98.93-12.22A8.06,8.06,0,0,1,793.2,261.09Zm1.69,37.57a4.64,4.64,0,0,1-1-3v-18.2a4.58,4.58,0,0,1,.78-3q.58-.78,2.73-.78l97,11.83a6,6,0,0,1,3.77,1.69,4.41,4.41,0,0,1,1.3,3.38v16.9c-.13,2.08-.65,3.25-1.56,3.77a4.74,4.74,0,0,1-3.51.78L798.4,300.22C796.71,299.83,795.54,299.44,794.89,298.66Z"/><path class="cls-2" d="M1109.75,309.58a3.31,3.31,0,0,1-2.86,1H1092.2a4.32,4.32,0,0,1-3.12-.65,5.14,5.14,0,0,1-1.17-3.38l-3.25-36.14a5.16,5.16,0,0,1,.26-3.38,4.76,4.76,0,0,1,3-.65h15.47a7,7,0,0,1,3.12.65,5.14,5.14,0,0,1,1.17,3.38l3.12,36.14A3.57,3.57,0,0,1,1109.75,309.58Zm34.19-39.65a4.39,4.39,0,0,1,1.17-2.6,3.74,3.74,0,0,1,2.34-.91h19.11a5,5,0,0,1,2.86.91,3.63,3.63,0,0,1,1,2.6v51.22q.19,17.16-7.8,25c-5.46,5.07-13.52,7.67-24.57,7.54h-42.9a4.64,4.64,0,0,1-3-1,3.63,3.63,0,0,1-1-2.6V329.86a3.72,3.72,0,0,1,1-2.73,5.43,5.43,0,0,1,3-.91h35.36c4.94.13,8.45-.78,10.4-2.6s3-5.33,3-10.53Zm-5.85,39.65a3.87,3.87,0,0,1-3,1h-14.56a4.9,4.9,0,0,1-3.38-.65,5.14,5.14,0,0,1-1.17-3.38l-3.12-36.14a5.92,5.92,0,0,1,.39-3.38c.39-.39,1.17-.65,2.73-.65h15.73a6.78,6.78,0,0,1,3,.65,5.14,5.14,0,0,1,1.17,3.38l3.12,36.14A3.49,3.49,0,0,1,1138.09,309.58Z"/><path class="cls-2" d="M1451.52,300.35a6.7,6.7,0,0,1,3.25,3c.65,1.3.39,3-.78,5.2L1441.9,329.6a7.73,7.73,0,0,1-4,4.29q-2.34,1-5.46-.78l-35.75-21.58V349a5.32,5.32,0,0,1-1.43,3.38,4.72,4.72,0,0,1-3.25,1.43h-27a4.89,4.89,0,0,1-4.68-4.81V243.15a5.14,5.14,0,0,1,4.68-5.07h27a4.84,4.84,0,0,1,3.25,1.56,5.38,5.38,0,0,1,1.43,3.51v24.7Z"/><g id="layer1"><circle id="path4642" class="cls-3" cx="208.99" cy="208.99" r="204.17"/><g id="g4651"><path id="path4593" class="cls-1" d="M211.23,27.88A154.6,154.6,0,0,0,97,183.78l9.89-9.89L102,155.7a5.73,5.73,0,0,1,11-3.12.94.94,0,0,0,0,.16l3.16,11.8,9.64-9.64-10.11-37.73a5.73,5.73,0,0,1,11-3.13c0,.06,0,.11,0,.16l8.4,31.35,1.84-1.84a5.8,5.8,0,0,1,2.81-1.58,5.73,5.73,0,0,1,5.29,9.68l-6.52,6.51,46,171.68a5.72,5.72,0,1,1-11,3.07l0-.11L129.28,167.67l-9.64,9.64,11.48,42.83a5.73,5.73,0,0,1-11,3.08l0-.12-9.77-36.44L99.24,197.71a5.23,5.23,0,0,1-.93.76,155,155,0,0,0,3.6,18.75l19.87,74.15c16.77,62.59-2.71,81.3-2.71,81.3l22.85-6.12A154.59,154.59,0,0,0,251.24,177.21L233.15,109.7,310.59,89,298.4,110.07a3.43,3.43,0,1,0,5.85,3.59.51.51,0,0,0,.09-.16l16.34-28.3a3.43,3.43,0,0,0-3.86-5l-85.45,22.89c-16.77-62.59,2.71-81.3,2.71-81.3ZM183.76,71.22a15.22,15.22,0,0,1,7.88,29.41h0A15.23,15.23,0,0,1,173,89.86h0a15.23,15.23,0,0,1,10.77-18.64Zm1.45,5.44a9.59,9.59,0,0,0,5,18.53h0A9.6,9.6,0,0,0,197,83.44h0a9.59,9.59,0,0,0-11.76-6.78ZM249.4,84a3.43,3.43,0,1,0,1.78,6.63l64.74-17.34a3.44,3.44,0,0,0-1.78-6.64Zm-85,36.4,29.56-7.92a3.45,3.45,0,0,1,4.21,2.43,3.58,3.58,0,0,1,0,1.78L191,143.52a3.43,3.43,0,0,1-6.66-1.66.53.53,0,0,1,0-.12l5.65-21.1L166.16,127a3.44,3.44,0,0,1-1.9-6.61l.12,0Zm-8.62,48.85.39-.1a5.77,5.77,0,0,1,2.83.07L221.69,186a5.72,5.72,0,1,1-2.88,11.08l-.08,0L156,180.26a5.73,5.73,0,0,1-.26-11Zm6.83,25.5.39-.1h0a5.81,5.81,0,0,1,2.84.07l62.71,16.81a5.72,5.72,0,1,1-2.88,11.08l-.09,0-62.71-16.81a5.73,5.73,0,0,1-.26-11Zm7.62,28.43.39-.1h0a5.65,5.65,0,0,1,2.83.07l62.71,16.8A5.73,5.73,0,0,1,233.35,251l-.17,0-62.71-16.8a5.73,5.73,0,0,1-.26-11Z"/><path id="path4644" class="cls-4" d="M183.65,100.58a15.17,15.17,0,0,0,4.13.55Zm-62.25,9.3a5.74,5.74,0,0,0-5.65,7.29l10.11,37.73-9.64,9.64-3.16-11.8a5.73,5.73,0,0,0-7-4.15l-.16,0A5.71,5.71,0,0,0,102,155.7l4.87,18.19-9.82,9.82,0,.25,1.31,14.49a4.93,4.93,0,0,0,.9-.74l11.05-11.05,9.77,36.44a5.73,5.73,0,1,0,11.1-2.81s0-.1,0-.15l-11.48-42.82,9.65-9.65L173.57,333a5.73,5.73,0,1,0,11.1-2.81.83.83,0,0,0,0-.15l-46-171.68,6.52-6.51a5.72,5.72,0,0,0-5.29-9.68,5.8,5.8,0,0,0-2.81,1.58l-1.84,1.84-8.4-31.35a5.72,5.72,0,0,0-5.41-4.32ZM195,112.35a3.2,3.2,0,0,0-1,.11l-29.56,7.92a3.43,3.43,0,1,0,1.64,6.67l.14,0L190,120.64l-5.65,21.1a3.43,3.43,0,0,0,6.6,1.9l0-.12,7.2-26.85a3.44,3.44,0,0,0-2.43-4.21,3.87,3.87,0,0,0-.76-.11ZM157.28,169a6.13,6.13,0,0,0-1.13.14l-.39.1a5.73,5.73,0,0,0,.26,11l62.71,16.8a5.73,5.73,0,0,0,3.09-11l-.13,0L159,169.2a5.71,5.71,0,0,0-1.7-.21Zm6.84,25.5a5.39,5.39,0,0,0-1.14.14h0l-.39.1a5.73,5.73,0,0,0,.26,11l62.71,16.8a5.73,5.73,0,1,0,3.12-11l-.15,0L165.82,194.7A5.79,5.79,0,0,0,164.12,194.49Zm7.61,28.43a5.38,5.38,0,0,0-1.13.14h0l-.39.1a5.72,5.72,0,0,0,.26,11L233.18,251a5.73,5.73,0,0,0,3.09-11l-.13,0-62.71-16.8a5.71,5.71,0,0,0-1.7-.21Z"/><path id="path4659" class="cls-1" d="M211.23,27.88A154.6,154.6,0,0,0,97,183.78l9.89-9.89L102,155.7a5.73,5.73,0,0,1,11-3.12.94.94,0,0,0,0,.16l3.16,11.8,9.64-9.64-10.11-37.73a5.73,5.73,0,0,1,11-3.13c0,.06,0,.11,0,.16l8.4,31.35,1.84-1.84a5.8,5.8,0,0,1,2.81-1.58,5.73,5.73,0,0,1,5.29,9.68l-6.52,6.51,46,171.68a5.72,5.72,0,1,1-11,3.07l0-.11L129.28,167.67l-9.64,9.64,11.48,42.83a5.73,5.73,0,0,1-11,3.08l0-.12-9.77-36.44L99.24,197.71a5.23,5.23,0,0,1-.93.76,155,155,0,0,0,3.6,18.75l19.87,74.15c16.77,62.59-2.71,81.3-2.71,81.3l22.85-6.12A154.59,154.59,0,0,0,251.24,177.21L233.15,109.7,310.59,89,298.4,110.07a3.43,3.43,0,1,0,5.85,3.59.51.51,0,0,0,.09-.16l16.34-28.3a3.43,3.43,0,0,0-3.86-5l-85.45,22.89c-16.77-62.59,2.71-81.3,2.71-81.3ZM183.76,71.22a15.22,15.22,0,0,1,7.88,29.41h0A15.23,15.23,0,0,1,173,89.86h0a15.23,15.23,0,0,1,10.77-18.64Zm1.45,5.44a9.59,9.59,0,0,0,5,18.53h0A9.6,9.6,0,0,0,197,83.44h0a9.59,9.59,0,0,0-11.76-6.78ZM249.4,84a3.43,3.43,0,1,0,1.78,6.63l64.74-17.34a3.44,3.44,0,0,0-1.78-6.64Zm-85,36.4,29.56-7.92a3.45,3.45,0,0,1,4.21,2.43,3.58,3.58,0,0,1,0,1.78L191,143.52a3.43,3.43,0,0,1-6.66-1.66.53.53,0,0,1,0-.12l5.65-21.1L166.16,127a3.44,3.44,0,0,1-1.9-6.61l.12,0Zm-8.62,48.85.39-.1a5.77,5.77,0,0,1,2.83.07L221.69,186a5.72,5.72,0,1,1-2.88,11.08l-.08,0L156,180.26a5.73,5.73,0,0,1-.26-11Zm6.83,25.5.39-.1h0a5.81,5.81,0,0,1,2.84.07l62.71,16.81a5.72,5.72,0,1,1-2.88,11.08l-.09,0-62.71-16.81a5.73,5.73,0,0,1-.26-11Zm7.62,28.43.39-.1h0a5.65,5.65,0,0,1,2.83.07l62.71,16.8A5.73,5.73,0,0,1,233.35,251l-.17,0-62.71-16.8a5.73,5.73,0,0,1-.26-11Z"/><path id="path4745" class="cls-1" d="M211.23,27.88A154.6,154.6,0,0,0,97,183.78l9.89-9.89L102,155.7a5.73,5.73,0,0,1,11-3.12.94.94,0,0,0,0,.16l3.16,11.8,9.64-9.64-10.11-37.73a5.73,5.73,0,0,1,11-3.13c0,.06,0,.11,0,.16l8.4,31.35,1.84-1.84a5.8,5.8,0,0,1,2.81-1.58,5.73,5.73,0,0,1,5.29,9.68l-6.52,6.51,46,171.68a5.72,5.72,0,1,1-11,3.07l0-.11L129.28,167.67l-9.64,9.64,11.48,42.83a5.73,5.73,0,0,1-11,3.08l0-.12-9.77-36.44L99.24,197.71a5.23,5.23,0,0,1-.93.76,155,155,0,0,0,3.6,18.75l19.87,74.15c16.77,62.59-2.71,81.3-2.71,81.3l22.85-6.12A154.59,154.59,0,0,0,251.24,177.21L233.15,109.7,310.59,89,298.4,110.07a3.43,3.43,0,1,0,5.85,3.59.51.51,0,0,0,.09-.16l16.34-28.3a3.43,3.43,0,0,0-3.86-5l-85.45,22.89c-16.77-62.59,2.71-81.3,2.71-81.3ZM183.76,71.22a15.22,15.22,0,0,1,7.88,29.41h0A15.23,15.23,0,0,1,173,89.86h0a15.23,15.23,0,0,1,10.77-18.64Zm1.45,5.44a9.59,9.59,0,0,0,5,18.53h0A9.6,9.6,0,0,0,197,83.44h0a9.59,9.59,0,0,0-11.76-6.78ZM249.4,84a3.43,3.43,0,1,0,1.78,6.63l64.74-17.34a3.44,3.44,0,0,0-1.78-6.64Zm-85,36.4,29.56-7.92a3.45,3.45,0,0,1,4.21,2.43,3.58,3.58,0,0,1,0,1.78L191,143.52a3.43,3.43,0,0,1-6.66-1.66.53.53,0,0,1,0-.12l5.65-21.1L166.16,127a3.44,3.44,0,0,1-1.9-6.61l.12,0Zm-8.62,48.85.39-.1a5.77,5.77,0,0,1,2.83.07L221.69,186a5.72,5.72,0,1,1-2.88,11.08l-.08,0L156,180.26a5.73,5.73,0,0,1-.26-11Zm6.83,25.5.39-.1h0a5.81,5.81,0,0,1,2.84.07l62.71,16.81a5.72,5.72,0,1,1-2.88,11.08l-.09,0-62.71-16.81a5.73,5.73,0,0,1-.26-11Zm7.62,28.43.39-.1h0a5.65,5.65,0,0,1,2.83.07l62.71,16.8A5.73,5.73,0,0,1,233.35,251l-.17,0-62.71-16.8a5.73,5.73,0,0,1-.26-11Z"/></g><g id="g4941"><rect id="rect4877" class="cls-5" x="319.65" y="264.87" width="10.37" height="7.65"/><circle id="path4879" class="cls-1" cx="308.14" cy="268.69" r="3.56"/><circle id="circle4881" class="cls-1" cx="341.17" cy="268.69" r="3.56"/><path id="path4883" class="cls-5" d="M305.1,257.19s3.52,4.83,8.36,4.83"/><g id="g4896"><path id="path4891" class="cls-6" d="M295.15,270.13l-3.55,2.93"/></g><g id="g4916"><path id="path4873" class="cls-7" d="M288.3,279.49a12.47,12.47,0,0,1,0-21.6"/><path id="path4875" class="cls-7" d="M361.38,279.49a12.47,12.47,0,0,0,0-21.6"/><path id="path4885" class="cls-8" d="M291.44,273.16a4.79,4.79,0,1,1,4.8,0"/><circle id="path4889" class="cls-8" cx="293.84" cy="268.69" r="1.96" transform="translate(-94.98 182.92) rotate(-30)"/><g id="g4904"><path id="path4898" class="cls-8" d="M352.82,273.16a4.8,4.8,0,1,1,4.79,0"/><circle id="circle4900" class="cls-8" cx="355.21" cy="268.69" r="1.96" transform="translate(-86.76 213.61) rotate(-30)"/><path id="path4902" class="cls-6" d="M356.53,270.13,353,273.06"/></g></g></g></g></g></g></svg>