<svg xmlns="http://www.w3.org/2000/svg" viewBox="0 0 1623.77 417.98"><defs><style>.cls-1{font-size:163px;font-family:CP-Font-83pv-RKSJ-H, CP Font;}.cls-1,.cls-4{fill:#37abc8;}.cls-2{font-size:130px;fill:#3e3a39;letter-spacing:1.16em;}.cls-3{fill:#dcf4f3;stroke:#37ab93;stroke-width:9.64px;}.cls-3,.cls-6,.cls-7,.cls-8,.cls-9{stroke-linecap:round;}.cls-3,.cls-6,.cls-8,.cls-9{stroke-linejoin:round;}.cls-5{fill:#ffe680;}.cls-6,.cls-7,.cls-8,.cls-9{fill:none;stroke:#37abc8;}.cls-6{stroke-width:2.28px;}.cls-7,.cls-9{stroke-width:6.17px;}.cls-8{stroke-width:6px;}</style></defs><title>アセット 2</title><g id="レイヤー_2" data-name="レイヤー 2"><g id="レイヤー_1-2" data-name="レイヤー 1"><text class="cls-1" transform="translate(500.57 194.94)">プランクトン<tspan class="cls-2"><tspan x="0" y="150.65">サミット</tspan></tspan></text><g id="layer1"><circle id="path4642" class="cls-3" cx="208.99" cy="208.99" r="204.17"/><g id="g4651"><path id="path4593" class="cls-4" d="M211.23,27.88A154.6,154.6,0,0,0,97,183.78l9.89-9.89L102,155.7a5.73,5.73,0,0,1,11-3.12.94.94,0,0,0,0,.16l3.16,11.8,9.64-9.64-10.11-37.73a5.73,5.73,0,0,1,11-3.13c0,.06,0,.11,0,.16l8.4,31.35,1.84-1.84a5.8,5.8,0,0,1,2.81-1.58,5.73,5.73,0,0,1,5.29,9.68l-6.52,6.51,46,171.68a5.72,5.72,0,1,1-11,3.07l0-.11L129.28,167.67l-9.64,9.64,11.48,42.83a5.73,5.73,0,0,1-11,3.08l0-.12-9.77-36.44L99.24,197.71a5.23,5.23,0,0,1-.93.76,155,155,0,0,0,3.6,18.75l19.87,74.15c16.77,62.59-2.71,81.3-2.71,81.3l22.85-6.12A154.59,154.59,0,0,0,251.24,177.21L233.15,109.7,310.59,89,298.4,110.07a3.43,3.43,0,1,0,5.85,3.59.51.51,0,0,0,.09-.16l16.34-28.3a3.43,3.43,0,0,0-3.86-5l-85.45,22.89c-16.77-62.59,2.71-81.3,2.71-81.3ZM183.76,71.22a15.22,15.22,0,0,1,7.88,29.41h0A15.23,15.23,0,0,1,173,89.86h0a15.23,15.23,0,0,1,10.77-18.64Zm1.45,5.44a9.59,9.59,0,0,0,5,18.53h0A9.6,9.6,0,0,0,197,83.44h0a9.59,9.59,0,0,0-11.76-6.78ZM249.4,84a3.43,3.43,0,1,0,1.78,6.63l64.74-17.34a3.44,3.44,0,0,0-1.78-6.64Zm-85,36.4,29.56-7.92a3.45,3.45,0,0,1,4.21,2.43,3.58,3.58,0,0,1,0,1.78L191,143.52a3.43,3.43,0,0,1-6.66-1.66.53.53,0,0,1,0-.12l5.65-21.1L166.16,127a3.44,3.44,0,0,1-1.9-6.61l.12,0Zm-8.62,48.85.39-.1a5.77,5.77,0,0,1,2.83.07L221.69,186a5.72,5.72,0,1,1-2.88,11.08l-.08,0L156,180.26a5.73,5.73,0,0,1-.26-11Zm6.83,25.5.39-.1h0a5.81,5.81,0,0,1,2.84.07l62.71,16.81a5.72,5.72,0,1,1-2.88,11.08l-.09,0-62.71-16.81a5.73,5.73,0,0,1-.26-11Zm7.62,28.43.39-.1h0a5.65,5.65,0,0,1,2.83.07l62.71,16.8A5.73,5.73,0,0,1,233.35,251l-.17,0-62.71-16.8a5.73,5.73,0,0,1-.26-11Z"/><path id="path4644" class="cls-5" d="M183.65,100.58a15.17,15.17,0,0,0,4.13.55Zm-62.25,9.3a5.74,5.74,0,0,0-5.65,7.29l10.11,37.73-9.64,9.64-3.16-11.8a5.73,5.73,0,0,0-7-4.15l-.16,0A5.71,5.71,0,0,0,102,155.7l4.87,18.19-9.82,9.82,0,.25,1.31,14.49a4.93,4.93,0,0,0,.9-.74l11.05-11.05,9.77,36.44a5.73,5.73,0,1,0,11.1-2.81s0-.1,0-.15l-11.48-42.82,9.65-9.65L173.57,333a5.73,5.73,0,1,0,11.1-2.81.83.83,0,0,0,0-.15l-46-171.68,6.52-6.51a5.72,5.72,0,0,0-5.29-9.68,5.8,5.8,0,0,0-2.81,1.58l-1.84,1.84-8.4-31.35a5.72,5.72,0,0,0-5.41-4.32ZM195,112.35a3.2,3.2,0,0,0-1,.11l-29.56,7.92a3.43,3.43,0,1,0,1.64,6.67l.14,0L190,120.64l-5.65,21.1a3.43,3.43,0,0,0,6.6,1.9l0-.12,7.2-26.85a3.44,3.44,0,0,0-2.43-4.21,3.87,3.87,0,0,0-.76-.11ZM157.28,169a6.13,6.13,0,0,0-1.13.14l-.39.1a5.73,5.73,0,0,0,.26,11l62.71,16.8a5.73,5.73,0,0,0,3.09-11l-.13,0L159,169.2a5.71,5.71,0,0,0-1.7-.21Zm6.84,25.5a5.39,5.39,0,0,0-1.14.14h0l-.39.1a5.73,5.73,0,0,0,.26,11l62.71,16.8a5.73,5.73,0,1,0,3.12-11l-.15,0L165.82,194.7A5.79,5.79,0,0,0,164.12,194.49Zm7.61,28.43a5.38,5.38,0,0,0-1.13.14h0l-.39.1a5.72,5.72,0,0,0,.26,11L233.18,251a5.73,5.73,0,0,0,3.09-11l-.13,0-62.71-16.8a5.71,5.71,0,0,0-1.7-.21Z"/><path id="path4659" class="cls-4" d="M211.23,27.88A154.6,154.6,0,0,0,97,183.78l9.89-9.89L102,155.7a5.73,5.73,0,0,1,11-3.12.94.94,0,0,0,0,.16l3.16,11.8,9.64-9.64-10.11-37.73a5.73,5.73,0,0,1,11-3.13c0,.06,0,.11,0,.16l8.4,31.35,1.84-1.84a5.8,5.8,0,0,1,2.81-1.58,5.73,5.73,0,0,1,5.29,9.68l-6.52,6.51,46,171.68a5.72,5.72,0,1,1-11,3.07l0-.11L129.28,167.67l-9.64,9.64,11.48,42.83a5.73,5.73,0,0,1-11,3.08l0-.12-9.77-36.44L99.24,197.71a5.23,5.23,0,0,1-.93.76,155,155,0,0,0,3.6,18.75l19.87,74.15c16.77,62.59-2.71,81.3-2.71,81.3l22.85-6.12A154.59,154.59,0,0,0,251.24,177.21L233.15,109.7,310.59,89,298.4,110.07a3.43,3.43,0,1,0,5.85,3.59.51.51,0,0,0,.09-.16l16.34-28.3a3.43,3.43,0,0,0-3.86-5l-85.45,22.89c-16.77-62.59,2.71-81.3,2.71-81.3ZM183.76,71.22a15.22,15.22,0,0,1,7.88,29.41h0A15.23,15.23,0,0,1,173,89.86h0a15.23,15.23,0,0,1,10.77-18.64Zm1.45,5.44a9.59,9.59,0,0,0,5,18.53h0A9.6,9.6,0,0,0,197,83.44h0a9.59,9.59,0,0,0-11.76-6.78ZM249.4,84a3.43,3.43,0,1,0,1.78,6.63l64.74-17.34a3.44,3.44,0,0,0-1.78-6.64Zm-85,36.4,29.56-7.92a3.45,3.45,0,0,1,4.21,2.43,3.58,3.58,0,0,1,0,1.78L191,143.52a3.43,3.43,0,0,1-6.66-1.66.53.53,0,0,1,0-.12l5.65-21.1L166.16,127a3.44,3.44,0,0,1-1.9-6.61l.12,0Zm-8.62,48.85.39-.1a5.77,5.77,0,0,1,2.83.07L221.69,186a5.72,5.72,0,1,1-2.88,11.08l-.08,0L156,180.26a5.73,5.73,0,0,1-.26-11Zm6.83,25.5.39-.1h0a5.81,5.81,0,0,1,2.84.07l62.71,16.81a5.72,5.72,0,1,1-2.88,11.08l-.09,0-62.71-16.81a5.73,5.73,0,0,1-.26-11Zm7.62,28.43.39-.1h0a5.65,5.65,0,0,1,2.83.07l62.71,16.8A5.73,5.73,0,0,1,233.35,251l-.17,0-62.71-16.8a5.73,5.73,0,0,1-.26-11Z"/><path id="path4745" class="cls-4" d="M211.23,27.88A154.6,154.6,0,0,0,97,183.78l9.89-9.89L102,155.7a5.73,5.73,0,0,1,11-3.12.94.94,0,0,0,0,.16l3.16,11.8,9.64-9.64-10.11-37.73a5.73,5.73,0,0,1,11-3.13c0,.06,0,.11,0,.16l8.4,31.35,1.84-1.84a5.8,5.8,0,0,1,2.81-1.58,5.73,5.73,0,0,1,5.29,9.68l-6.52,6.51,46,171.68a5.72,5.72,0,1,1-11,3.07l0-.11L129.28,167.67l-9.64,9.64,11.48,42.83a5.73,5.73,0,0,1-11,3.08l0-.12-9.77-36.44L99.24,197.71a5.23,5.23,0,0,1-.93.76,155,155,0,0,0,3.6,18.75l19.87,74.15c16.77,62.59-2.71,81.3-2.71,81.3l22.85-6.12A154.59,154.59,0,0,0,251.24,177.21L233.15,109.7,310.59,89,298.4,110.07a3.43,3.43,0,1,0,5.85,3.59.51.51,0,0,0,.09-.16l16.34-28.3a3.43,3.43,0,0,0-3.86-5l-85.45,22.89c-16.77-62.59,2.71-81.3,2.71-81.3ZM183.76,71.22a15.22,15.22,0,0,1,7.88,29.41h0A15.23,15.23,0,0,1,173,89.86h0a15.23,15.23,0,0,1,10.77-18.64Zm1.45,5.44a9.59,9.59,0,0,0,5,18.53h0A9.6,9.6,0,0,0,197,83.44h0a9.59,9.59,0,0,0-11.76-6.78ZM249.4,84a3.43,3.43,0,1,0,1.78,6.63l64.74-17.34a3.44,3.44,0,0,0-1.78-6.64Zm-85,36.4,29.56-7.92a3.45,3.45,0,0,1,4.21,2.43,3.58,3.58,0,0,1,0,1.78L191,143.52a3.43,3.43,0,0,1-6.66-1.66.53.53,0,0,1,0-.12l5.65-21.1L166.16,127a3.44,3.44,0,0,1-1.9-6.61l.12,0Zm-8.62,48.85.39-.1a5.77,5.77,0,0,1,2.83.07L221.69,186a5.72,5.72,0,1,1-2.88,11.08l-.08,0L156,180.26a5.73,5.73,0,0,1-.26-11Zm6.83,25.5.39-.1h0a5.81,5.81,0,0,1,2.84.07l62.71,16.81a5.72,5.72,0,1,1-2.88,11.08l-.09,0-62.71-16.81a5.73,5.73,0,0,1-.26-11Zm7.62,28.43.39-.1h0a5.65,5.65,0,0,1,2.83.07l62.71,16.8A5.73,5.73,0,0,1,233.35,251l-.17,0-62.71-16.8a5.73,5.73,0,0,1-.26-11Z"/></g><g id="g4941"><rect id="rect4877" class="cls-6" x="319.65" y="264.87" width="10.37" height="7.65"/><circle id="path4879" class="cls-4" cx="308.14" cy="268.69" r="3.56"/><circle id="circle4881" class="cls-4" cx="341.17" cy="268.69" r="3.56"/><path id="path4883" class="cls-6" d="M305.1,257.19s3.52,4.83,8.36,4.83"/><g id="g4896"><path id="path4891" class="cls-7" d="M295.15,270.13l-3.55,2.93"/></g><g id="g4916"><path id="path4873" class="cls-8" d="M288.3,279.49a12.47,12.47,0,0,1,0-21.6"/><path id="path4875" class="cls-8" d="M361.38,279.49a12.47,12.47,0,0,0,0-21.6"/><path id="path4885" class="cls-9" d="M291.44,273.16a4.79,4.79,0,1,1,4.8,0"/><circle id="path4889" class="cls-9" cx="293.84" cy="268.69" r="1.96" transform="translate(-94.98 182.92) rotate(-30)"/><g id="g4904"><path id="path4898" class="cls-9" d="M352.82,273.16a4.8,4.8,0,1,1,4.79,0"/><circle id="circle4900" class="cls-9" cx="355.21" cy="268.69" r="1.96" transform="translate(-86.76 213.61) rotate(-30)"/><path id="path4902" class="cls-7" d="M356.53,270.13,353,273.06"/></g></g></g></g></g></g></svg>